<svg xmlns="http://www.w3.org/2000/svg" viewBox="0 0 64 64" fill="none" aria-hidden="true">
  <defs>
    <linearGradient id="gh-g" x1="8" y1="8" x2="56" y2="56" gradientUnits="userSpaceOnUse">
      <stop stop-color="#a855f7"/>
      <stop offset="0.5" stop-color="#6366f1"/>
      <stop offset="1" stop-color="#22d3ee"/>
    </linearGradient>
    <filter id="gh-glow" x="-20%" y="-20%" width="140%" height="140%">
      <feGaussianBlur stdDeviation="2" result="b"/>
      <feMerge><feMergeNode in="b"/><feMergeNode in="SourceGraphic"/></feMerge>
    </filter>
  </defs>
  <circle cx="32" cy="32" r="28" stroke="url(#gh-g)" stroke-width="1.5" opacity="0.35"/>
  <path filter="url(#gh-glow)" fill="url(#gh-g)" d="M32 14c-9.94 0-18 8.06-18 18 0 7.96 5.16 14.7 12.3 17.08.9.17 1.23-.39 1.23-.86 0-.43-.02-1.56-.03-3.06-5.01 1.09-6.07-2.41-6.07-2.41-.82-2.08-2.01-2.63-2.01-2.63-1.64-1.12.12-1.1.12-1.1 1.82.13 2.78 1.87 2.78 1.87 1.61 2.76 4.23 1.96 5.26 1.5.16-1.17.63-1.96 1.14-2.41-4-.45-8.2-2-8.2-8.92 0-1.97.7-3.58 1.86-4.84-.19-.45-.81-2.27.18-4.73 0 0 1.52-.48 4.97 1.85a17.2 17.2 0 019.12 0c3.45-2.33 4.96-1.85 4.96-1.85 1 2.46.37 4.28.18 4.73 1.16 1.26 1.85 2.87 1.85 4.84 0 6.94-4.21 8.46-8.22 8.9.65.56 1.22 1.66 1.22 3.35 0 2.42-.02 4.37-.02 4.96 0 .48.32 1.04 1.24.86C44.84 46.7 50 39.96 50 32c0-9.94-8.06-18-18-18z"/>
</svg>
